<mxfile host="app.diagrams.net" modified="2022-06-20T12:46:31.672Z" agent="5.0 (Macintosh; Intel Mac OS X 10_14_0) AppleWebKit/537.36 (KHTML, like Gecko) Chrome/102.0.5005.61 Safari/537.36" etag="UhZzNnemJYZA7ZW7gpM9" version="19.0.3" type="github">
  <diagram id="Imr8xMxJNclzD3NZOo7D" name="Page-1">
    <mxGraphModel dx="949" dy="473" grid="1" gridSize="10" guides="1" tooltips="1" connect="1" arrows="1" fold="1" page="1" pageScale="1" pageWidth="850" pageHeight="1100" math="0" shadow="0">
      <root>
        <mxCell id="0" />
        <mxCell id="1" parent="0" />
        <mxCell id="fjUSr5XvYPyr8GNO5_YD-1" value="&lt;p style=&quot;margin:0px;margin-top:4px;text-align:center;&quot;&gt;&lt;i&gt;&amp;lt;&amp;lt;Interface&amp;gt;&amp;gt;&lt;/i&gt;&lt;br&gt;&lt;b&gt;Executor&lt;/b&gt;&lt;/p&gt;&lt;hr size=&quot;1&quot;&gt;&lt;p style=&quot;margin:0px;margin-left:4px;&quot;&gt;+ execute(Runnable): void&lt;br&gt;&lt;/p&gt;" style="verticalAlign=top;align=left;overflow=fill;fontSize=12;fontFamily=Helvetica;html=1;" vertex="1" parent="1">
          <mxGeometry x="380" y="30" width="190" height="70" as="geometry" />
        </mxCell>
        <mxCell id="fjUSr5XvYPyr8GNO5_YD-2" value="&lt;p style=&quot;margin:0px;margin-top:4px;text-align:center;&quot;&gt;&lt;i&gt;&amp;lt;&amp;lt;Interface&amp;gt;&amp;gt;&lt;/i&gt;&lt;br&gt;&lt;b&gt;ExecutorService&lt;/b&gt;&lt;/p&gt;&lt;hr size=&quot;1&quot;&gt;&lt;p style=&quot;margin:0px;margin-left:4px;&quot;&gt;+ submit(Runnable) : Future&lt;br&gt;&lt;/p&gt;&lt;p style=&quot;margin:0px;margin-left:4px;&quot;&gt;+ submit(Callable) : Future&lt;/p&gt;&lt;p style=&quot;margin:0px;margin-left:4px;&quot;&gt;+ invokeAll() : List&amp;lt;Future&amp;gt;&lt;br&gt;&lt;/p&gt;&lt;p style=&quot;margin:0px;margin-left:4px;&quot;&gt;+ invokeAny() : T&lt;/p&gt;" style="verticalAlign=top;align=left;overflow=fill;fontSize=12;fontFamily=Helvetica;html=1;" vertex="1" parent="1">
          <mxGeometry x="380" y="150" width="190" height="110" as="geometry" />
        </mxCell>
        <mxCell id="fjUSr5XvYPyr8GNO5_YD-7" value="AbstractExecutorService" style="swimlane;fontStyle=1;align=center;verticalAlign=top;childLayout=stackLayout;horizontal=1;startSize=26;horizontalStack=0;resizeParent=1;resizeParentMax=0;resizeLast=0;collapsible=1;marginBottom=0;" vertex="1" parent="1">
          <mxGeometry x="160" y="320" width="190" height="34" as="geometry" />
        </mxCell>
        <mxCell id="fjUSr5XvYPyr8GNO5_YD-8" value="" style="line;strokeWidth=1;fillColor=none;align=left;verticalAlign=middle;spacingTop=-1;spacingLeft=3;spacingRight=3;rotatable=0;labelPosition=right;points=[];portConstraint=eastwest;" vertex="1" parent="fjUSr5XvYPyr8GNO5_YD-7">
          <mxGeometry y="26" width="190" height="8" as="geometry" />
        </mxCell>
        <mxCell id="fjUSr5XvYPyr8GNO5_YD-11" value="ForkJoinPool" style="swimlane;fontStyle=1;align=center;verticalAlign=top;childLayout=stackLayout;horizontal=1;startSize=26;horizontalStack=0;resizeParent=1;resizeParentMax=0;resizeLast=0;collapsible=1;marginBottom=0;" vertex="1" parent="1">
          <mxGeometry x="80" y="400" width="150" height="34" as="geometry" />
        </mxCell>
        <mxCell id="fjUSr5XvYPyr8GNO5_YD-12" value="" style="line;strokeWidth=1;fillColor=none;align=left;verticalAlign=middle;spacingTop=-1;spacingLeft=3;spacingRight=3;rotatable=0;labelPosition=right;points=[];portConstraint=eastwest;" vertex="1" parent="fjUSr5XvYPyr8GNO5_YD-11">
          <mxGeometry y="26" width="150" height="8" as="geometry" />
        </mxCell>
        <mxCell id="fjUSr5XvYPyr8GNO5_YD-15" value="" style="endArrow=block;endSize=16;endFill=0;html=1;rounded=0;entryX=0.5;entryY=1;entryDx=0;entryDy=0;exitX=0.5;exitY=0;exitDx=0;exitDy=0;" edge="1" parent="1" source="fjUSr5XvYPyr8GNO5_YD-2" target="fjUSr5XvYPyr8GNO5_YD-1">
          <mxGeometry width="160" relative="1" as="geometry">
            <mxPoint x="320" y="120" as="sourcePoint" />
            <mxPoint x="480" y="120" as="targetPoint" />
          </mxGeometry>
        </mxCell>
        <mxCell id="fjUSr5XvYPyr8GNO5_YD-17" value="&lt;p style=&quot;margin:0px;margin-top:4px;text-align:center;&quot;&gt;&lt;i&gt;&amp;lt;&amp;lt;Interface&amp;gt;&amp;gt;&lt;/i&gt;&lt;br&gt;&lt;b&gt;ScheduledExecutorService&lt;/b&gt;&lt;/p&gt;&lt;hr size=&quot;1&quot;&gt;&lt;p style=&quot;margin:0px;margin-left:4px;&quot;&gt;+ schedule() : ScheduledFuture&lt;/p&gt;&lt;p style=&quot;margin:0px;margin-left:4px;&quot;&gt;+ scheduleAtFixedRate : ScheduledFuture&lt;/p&gt;&lt;p style=&quot;margin:0px;margin-left:4px;&quot;&gt;+ scheduleWithFixedDelay : ScheduledFuture&lt;/p&gt;" style="verticalAlign=top;align=left;overflow=fill;fontSize=12;fontFamily=Helvetica;html=1;" vertex="1" parent="1">
          <mxGeometry x="560" y="320" width="260" height="100" as="geometry" />
        </mxCell>
        <mxCell id="fjUSr5XvYPyr8GNO5_YD-18" value="" style="endArrow=block;endSize=16;endFill=0;html=1;rounded=0;entryX=0.5;entryY=1;entryDx=0;entryDy=0;exitX=0.5;exitY=0;exitDx=0;exitDy=0;" edge="1" parent="1" source="fjUSr5XvYPyr8GNO5_YD-17" target="fjUSr5XvYPyr8GNO5_YD-2">
          <mxGeometry width="160" relative="1" as="geometry">
            <mxPoint x="580" y="260" as="sourcePoint" />
            <mxPoint x="740" y="260" as="targetPoint" />
            <Array as="points">
              <mxPoint x="690" y="300" />
              <mxPoint x="475" y="300" />
            </Array>
          </mxGeometry>
        </mxCell>
        <mxCell id="fjUSr5XvYPyr8GNO5_YD-19" value="" style="endArrow=block;dashed=1;endFill=0;endSize=12;html=1;rounded=0;entryX=0.25;entryY=1;entryDx=0;entryDy=0;exitX=0.5;exitY=0;exitDx=0;exitDy=0;" edge="1" parent="1" source="fjUSr5XvYPyr8GNO5_YD-7" target="fjUSr5XvYPyr8GNO5_YD-2">
          <mxGeometry width="160" relative="1" as="geometry">
            <mxPoint x="220" y="280" as="sourcePoint" />
            <mxPoint x="380" y="280" as="targetPoint" />
            <Array as="points">
              <mxPoint x="255" y="300" />
              <mxPoint x="428" y="300" />
            </Array>
          </mxGeometry>
        </mxCell>
        <mxCell id="fjUSr5XvYPyr8GNO5_YD-20" value="" style="endArrow=block;endSize=16;endFill=0;html=1;rounded=0;entryX=0.5;entryY=1;entryDx=0;entryDy=0;exitX=0.5;exitY=0;exitDx=0;exitDy=0;" edge="1" parent="1" source="fjUSr5XvYPyr8GNO5_YD-11" target="fjUSr5XvYPyr8GNO5_YD-7">
          <mxGeometry width="160" relative="1" as="geometry">
            <mxPoint x="140" y="370" as="sourcePoint" />
            <mxPoint x="300" y="370" as="targetPoint" />
            <Array as="points">
              <mxPoint x="155" y="380" />
              <mxPoint x="255" y="380" />
            </Array>
          </mxGeometry>
        </mxCell>
        <mxCell id="fjUSr5XvYPyr8GNO5_YD-21" value="" style="endArrow=block;endSize=16;endFill=0;html=1;rounded=0;entryX=0.5;entryY=1;entryDx=0;entryDy=0;exitX=0.5;exitY=0;exitDx=0;exitDy=0;" edge="1" parent="1" target="fjUSr5XvYPyr8GNO5_YD-7">
          <mxGeometry x="0.8317" y="24" width="160" relative="1" as="geometry">
            <mxPoint x="365" y="400" as="sourcePoint" />
            <mxPoint x="270" y="370" as="targetPoint" />
            <Array as="points">
              <mxPoint x="365" y="380" />
              <mxPoint x="255" y="380" />
            </Array>
            <mxPoint as="offset" />
          </mxGeometry>
        </mxCell>
        <mxCell id="fjUSr5XvYPyr8GNO5_YD-22" value="ThreadPoolExecutor" style="swimlane;fontStyle=1;align=center;verticalAlign=top;childLayout=stackLayout;horizontal=1;startSize=26;horizontalStack=0;resizeParent=1;resizeParentMax=0;resizeLast=0;collapsible=1;marginBottom=0;" vertex="1" parent="1">
          <mxGeometry x="270" y="400" width="190" height="34" as="geometry" />
        </mxCell>
        <mxCell id="fjUSr5XvYPyr8GNO5_YD-23" value="" style="line;strokeWidth=1;fillColor=none;align=left;verticalAlign=middle;spacingTop=-1;spacingLeft=3;spacingRight=3;rotatable=0;labelPosition=right;points=[];portConstraint=eastwest;" vertex="1" parent="fjUSr5XvYPyr8GNO5_YD-22">
          <mxGeometry y="26" width="190" height="8" as="geometry" />
        </mxCell>
        <mxCell id="fjUSr5XvYPyr8GNO5_YD-24" value="ScheduledThreadPoolExecutor" style="swimlane;fontStyle=1;align=center;verticalAlign=top;childLayout=stackLayout;horizontal=1;startSize=26;horizontalStack=0;resizeParent=1;resizeParentMax=0;resizeLast=0;collapsible=1;marginBottom=0;" vertex="1" parent="1">
          <mxGeometry x="260" y="480" width="210" height="34" as="geometry" />
        </mxCell>
        <mxCell id="fjUSr5XvYPyr8GNO5_YD-25" value="" style="line;strokeWidth=1;fillColor=none;align=left;verticalAlign=middle;spacingTop=-1;spacingLeft=3;spacingRight=3;rotatable=0;labelPosition=right;points=[];portConstraint=eastwest;" vertex="1" parent="fjUSr5XvYPyr8GNO5_YD-24">
          <mxGeometry y="26" width="210" height="8" as="geometry" />
        </mxCell>
        <mxCell id="fjUSr5XvYPyr8GNO5_YD-26" value="" style="endArrow=block;endSize=16;endFill=0;html=1;rounded=0;entryX=0.5;entryY=1;entryDx=0;entryDy=0;exitX=0.5;exitY=0;exitDx=0;exitDy=0;" edge="1" parent="1" source="fjUSr5XvYPyr8GNO5_YD-24" target="fjUSr5XvYPyr8GNO5_YD-22">
          <mxGeometry width="160" relative="1" as="geometry">
            <mxPoint x="175" y="450" as="sourcePoint" />
            <mxPoint x="335" y="450" as="targetPoint" />
          </mxGeometry>
        </mxCell>
        <mxCell id="fjUSr5XvYPyr8GNO5_YD-27" value="" style="endArrow=block;dashed=1;endFill=0;endSize=12;html=1;rounded=0;exitX=0.75;exitY=0;exitDx=0;exitDy=0;entryX=0.5;entryY=1;entryDx=0;entryDy=0;" edge="1" parent="1" source="fjUSr5XvYPyr8GNO5_YD-24" target="fjUSr5XvYPyr8GNO5_YD-17">
          <mxGeometry width="160" relative="1" as="geometry">
            <mxPoint x="400" y="460" as="sourcePoint" />
            <mxPoint x="560" y="460" as="targetPoint" />
            <Array as="points">
              <mxPoint x="418" y="450" />
              <mxPoint x="690" y="450" />
            </Array>
          </mxGeometry>
        </mxCell>
      </root>
    </mxGraphModel>
  </diagram>
</mxfile>
